<?xml version="1.0" encoding="UTF-8" standalone="no"?>
<!-- Created with Inkscape (http://www.inkscape.org/) -->

<svg
   xmlns:dc="http://purl.org/dc/elements/1.1/"
   xmlns:cc="http://creativecommons.org/ns#"
   xmlns:rdf="http://www.w3.org/1999/02/22-rdf-syntax-ns#"
   xmlns:svg="http://www.w3.org/2000/svg"
   xmlns="http://www.w3.org/2000/svg"
   xmlns:sodipodi="http://sodipodi.sourceforge.net/DTD/sodipodi-0.dtd"
   xmlns:inkscape="http://www.inkscape.org/namespaces/inkscape"
   width="744.09448819"
   height="1052.3622047"
   id="svg4348"
   version="1.1"
   inkscape:version="0.48.2 r9819"
   sodipodi:docname="logo.svg">
  <defs
     id="defs4350" />
  <sodipodi:namedview
     id="base"
     pagecolor="#ffffff"
     bordercolor="#666666"
     borderopacity="1.0"
     inkscape:pageopacity="0.0"
     inkscape:pageshadow="2"
     inkscape:zoom="1.979899"
     inkscape:cx="37.085038"
     inkscape:cy="650.56816"
     inkscape:document-units="px"
     inkscape:current-layer="layer1"
     showgrid="false"
     inkscape:window-width="753"
     inkscape:window-height="624"
     inkscape:window-x="44"
     inkscape:window-y="44"
     inkscape:window-maximized="0" />
  <metadata
     id="metadata4353">
    <rdf:RDF>
      <cc:Work
         rdf:about="">
        <dc:format>image/svg+xml</dc:format>
        <dc:type
           rdf:resource="http://purl.org/dc/dcmitype/StillImage" />
      </cc:Work>
    </rdf:RDF>
  </metadata>
  <g
     inkscape:label="Layer 1"
     inkscape:groupmode="layer"
     id="layer1">
    <path
       inkscape:connector-curvature="0"
       id="path3453"
       style="fill:#000000;fill-opacity:1;fill-rule:nonzero;stroke:none"
       d="m 337.99106,498.97185 -25.005,10.00125 0,8.4625 25.005,-10.00125 0,-8.4625 z m 0,25.96125 -25.005,10.0025 0,8.46125 25.005,-10.0025 0,-8.46125 z m 7.4975,23.27625 -40,15.9975 0,-70.04625 40,-16.00125 0,70.05 z m -52.5,15.9975 -40,-15.9975 0,-70.05 40,16.00125 0,70.04625 z m 59.755,-98.6375 c -1.7175,-1.16125 -3.89875,-1.3975 -5.825,-0.6275 l -47.68,19.0725 -47.68,-19.0725 c -1.92625,-0.77 -4.1075,-0.53375 -5.825,0.6275 -1.71625,1.1625 -2.745,3.10125 -2.745,5.17625 l 0,80 c 0,2.55625 1.555,4.85375 3.9275,5.80375 l 49.89375,19.95499 c 0,0 1.0225,0.33 1.215,0.36875 0.4025,0.0787 0.8075,0.1225 1.21375,0.1225 0.40625,0 0.81125,-0.0438 1.21375,-0.1225 0.19125,-0.0387 1.21875,-0.37125 1.21875,-0.37125 l 49.88875,-19.95249 c 2.37375,-0.95 3.92875,-3.2475 3.92875,-5.80375 l 0,-80 c 0,-2.075 -1.02875,-4.01375 -2.745,-5.17625 m -67.2525,43.40375 -25.005,-10.00125 0,8.4625 25.005,10.00125 0,-8.4625 z m 0,25.9625 -25.005,-10.0025 0,8.46125 25.005,10.0025 0,-8.46125 z" />
    <path
       d="m 491.02917,491.90078 -25.005,10.00125 0,8.4625 25.005,-10.00125 0,-8.4625 z m 0,25.96125 -25.005,10.0025 0,8.46125 25.005,-10.0025 0,-8.46125 z m 7.4975,23.27625 -40,15.9975 0,-70.04625 40,-16.00125 0,70.05 z m -52.5,15.9975 -40,-15.9975 0,-70.05 40,16.00125 0,70.04625 z m 59.755,-98.6375 c -1.7175,-1.16125 -3.89875,-1.3975 -5.825,-0.6275 l -47.68,19.0725 -47.68,-19.0725 c -1.92625,-0.77 -4.1075,-0.53375 -5.825,0.6275 -1.71625,1.1625 -2.745,3.10125 -2.745,5.17625 l 0,80 c 0,2.55625 1.555,4.85375 3.9275,5.80375 l 49.89375,19.95499 c 0,0 1.0225,0.33 1.215,0.36875 0.4025,0.0787 0.8075,0.1225 1.21375,0.1225 0.40625,0 0.81125,-0.0438 1.21375,-0.1225 0.19125,-0.0387 1.21875,-0.37125 1.21875,-0.37125 l 49.88875,-19.95249 c 2.37375,-0.95 3.92875,-3.2475 3.92875,-5.80375 l 0,-80 c 0,-2.075 -1.02875,-4.01375 -2.745,-5.17625 m -67.2525,43.40375 -25.005,-10.00125 0,8.4625 25.005,10.00125 0,-8.4625 z m 0,25.9625 -25.005,-10.0025 0,8.46125 25.005,10.0025 0,-8.46125 z"
       style="fill:#000000;fill-opacity:1;fill-rule:nonzero;stroke:none"
       id="use5142"
       inkscape:connector-curvature="0" />
  </g>
</svg>
